<svg width="46" height="46" viewBox="0 0 46 46" fill="none" xmlns="http://www.w3.org/2000/svg">
<path d="M23 6C35.15 6.00003 44.9998 13.6746 45 25.2471C45 36.8198 35.1502 39 23 39C10.8498 39 1 36.8198 1 25.2471C1.00025 13.6746 10.8499 6 23 6ZM35.1562 26.5352C34.6723 26.3872 34.1449 26.5544 33.8516 26.9502C33.6334 27.2449 33.6199 27.6378 33.8174 27.9473L33.9609 28.1719C34.5644 29.1178 34.9142 30.1924 34.9775 31.2979L35.0176 32.002C35.0411 32.4096 35.2958 32.7741 35.6807 32.9502C36.161 33.1694 36.7348 33.0278 37.043 32.6143L37.1973 32.4082C37.3931 32.1448 37.49 31.8246 37.4717 31.501L37.4385 30.9229C37.3642 29.6279 36.954 28.3698 36.2471 27.2617L36.1914 27.1738C36.0267 26.916 35.7708 26.7219 35.4707 26.6299L35.1562 26.5352ZM36.0557 28.5791C36.441 29.2143 36.6631 29.9346 36.7021 30.6787L36.7041 30.7197L35.5645 30.5762C35.5802 30.0329 35.4508 29.4972 35.1885 29.0244L35.1123 28.8877L36.0557 28.5791ZM17.2959 18.5596C16.1557 18.5599 15.2316 19.8504 15.2314 21.4424C15.2315 23.0345 16.1557 24.3258 17.2959 24.3262C18.4362 24.3259 19.3613 23.0346 19.3613 21.4424C19.3612 19.8503 18.4361 18.5599 17.2959 18.5596ZM28.7041 18.5596C27.5638 18.5599 26.6396 19.8511 26.6396 21.4434C26.6399 23.0353 27.5639 24.3259 28.7041 24.3262C29.8443 24.3259 30.7693 23.0353 30.7695 21.4434C30.7695 19.8511 29.8444 18.5599 28.7041 18.5596Z" fill="white"/>
</svg>
