<svg width="46" height="46" viewBox="0 0 46 46" fill="none" xmlns="http://www.w3.org/2000/svg">
<path d="M9.58333 7.66675L5.75 11.5001" stroke="white" stroke-width="2" stroke-linecap="round"/>
<path d="M36.4167 7.66675L40.25 11.5001" stroke="white" stroke-width="2" stroke-linecap="round"/>
<path d="M23 7.66699C31.4684 7.66699 38.333 14.5316 38.333 23C38.333 31.4684 31.4684 38.333 23 38.333C14.5316 38.333 7.66699 31.4684 7.66699 23C7.66699 14.5316 14.5316 7.66699 23 7.66699ZM27.458 17.4268C27.0269 17.0822 26.3977 17.1523 26.0527 17.583L22.792 21.6582L17.8047 18.334C17.3453 18.028 16.7244 18.1523 16.418 18.6113C16.1117 19.0708 16.236 19.6916 16.6953 19.998L22.2549 23.7041C22.7944 24.0637 23.5188 23.9516 23.9238 23.4453L27.6143 18.833C27.9591 18.4018 27.8892 17.7717 27.458 17.4268Z" fill="white"/>
</svg>
