<svg  viewBox="0 0 48 48" fill="none" xmlns="http://www.w3.org/2000/svg">
<path d="M24 9.90234C26.2195 9.90234 28.083 11.4992 31.8096 14.6934L33.8096 16.4082C35.8711 18.1752 36.9022 19.0586 37.4512 20.252C38.0001 21.4454 38 22.804 38 25.5195V34C38 37.7712 37.9997 39.6566 36.8281 40.8281C35.803 41.8532 34.2314 41.982 31.3281 41.998L30 42V32C30 30.3431 28.6569 29 27 29H21C19.3431 29 18 30.3431 18 32V42L16.6719 41.998C13.7686 41.982 12.197 41.8532 11.1719 40.8281C10.0003 39.6566 10 37.7712 10 34V25.5195C10 22.804 9.99991 21.4454 10.5488 20.252C11.0978 19.0586 12.1289 18.1752 14.1904 16.4082L16.1904 14.6934C19.917 11.4992 21.7805 9.90234 24 9.90234ZM27 31C27.5523 31 28 31.4477 28 32V42H20V32C20 31.4477 20.4477 31 21 31H27Z" fill="currentColor"/>
</svg>
