<svg width="48" height="48" viewBox="0 0 48 48" fill="none" xmlns="http://www.w3.org/2000/svg">
<path d="M6 16H37.2C38.8802 16 39.7202 16 40.362 16.327C40.9265 16.6146 41.3854 17.0735 41.673 17.638C42 18.2798 42 19.1198 42 20.8V33.2C42 34.8802 42 35.7202 41.673 36.362C41.3854 36.9265 40.9265 37.3854 40.362 37.673C39.7202 38 38.8802 38 37.2 38H10.8C9.11984 38 8.27976 38 7.63803 37.673C7.07354 37.3854 6.6146 36.9265 6.32698 36.362C6 35.7202 6 34.8802 6 33.2V16Z" fill="white"/>
<path d="M6 14C6 12.1144 6 11.1716 6.58579 10.5858C7.17157 10 8.11438 10 10 10H18.3431C19.1606 10 19.5694 10 19.9369 10.1522C20.3045 10.3045 20.5935 10.5935 21.1716 11.1716L26 16H6V14Z" fill="white"/>
</svg>
